<?xml version="1.0" standalone="no"?>
<!DOCTYPE svg PUBLIC "-//W3C//DTD SVG 20010904//EN"
 "http://www.w3.org/TR/2001/REC-SVG-20010904/DTD/svg10.dtd">
<svg version="1.0" xmlns="http://www.w3.org/2000/svg"
 width="500.000000pt" height="500.000000pt" viewBox="0 0 500.000000 500.000000"
 preserveAspectRatio="xMidYMid meet">
<metadata>
Created by potrace 1.14, written by Peter Selinger 2001-2017
</metadata>
<g transform="translate(0.000000,500.000000) scale(0.100000,-0.100000)"
fill="#000000" stroke="none">
<path d="M2360 4895 c-342 -73 -695 -346 -947 -732 -41 -62 -77 -113 -81 -113
-4 0 -25 18 -47 40 l-39 40 67 69 c44 46 67 77 67 93 0 29 -116 148 -145 148
-13 0 -72 -52 -155 -135 -74 -74 -138 -135 -141 -135 -8 0 -210 173 -377 324
-92 83 -132 125 -132 141 0 97 -76 194 -168 214 -167 35 -312 -134 -243 -284
36 -79 95 -122 181 -132 48 -6 52 -9 148 -117 113 -128 214 -244 291 -334 l54
-63 -136 -137 c-88 -88 -137 -145 -137 -158 0 -31 133 -156 157 -148 10 4 47
35 83 70 l65 64 198 -198 198 -198 -16 -76 c-54 -264 -195 -600 -397 -948 -53
-91 -103 -190 -112 -219 -19 -66 -20 -149 -2 -216 14 -54 108 -245 205 -419
34 -60 61 -114 61 -119 0 -5 -20 -32 -44 -60 -121 -143 -285 -448 -385 -719
-54 -144 -60 -178 -36 -198 16 -14 68 1 265 77 230 88 513 246 653 365 37 31
39 32 65 17 15 -9 115 -67 222 -131 305 -180 832 -470 868 -479 18 -4 48 -3
66 2 53 15 793 428 1029 574 39 25 75 45 80 45 5 0 37 -22 71 -49 188 -150
456 -289 755 -392 134 -46 156 -45 148 10 -9 64 -96 291 -177 458 -85 176
-160 299 -250 409 l-58 70 55 100 c112 203 211 410 223 468 24 115 0 201 -100
366 -194 321 -350 684 -411 958 l-23 103 199 199 199 199 72 -69 c40 -39 78
-70 86 -70 21 0 148 133 148 155 0 12 -54 74 -137 157 l-137 137 79 93 c43 51
144 166 223 254 142 160 143 161 192 167 86 10 145 54 181 132 34 73 19 150
-43 220 -75 86 -205 94 -288 19 -45 -40 -66 -81 -75 -145 -6 -42 -14 -54 -83
-116 -154 -139 -424 -373 -430 -373 -4 0 -68 61 -142 135 -85 85 -142 135
-155 135 -30 0 -145 -119 -145 -150 0 -17 21 -46 67 -92 67 -67 67 -67 47 -89
-43 -47 -51 -45 -88 29 -82 163 -238 365 -371 481 -137 120 -317 218 -481 262
-102 27 -337 35 -434 14z m-2112 -244 c5 -32 -23 -54 -49 -40 -19 10 -26 49
-12 63 4 4 19 6 33 4 18 -2 26 -10 28 -27z m4570 0 c5 -32 -23 -54 -49 -40
-19 10 -26 49 -12 63 4 4 19 6 33 4 18 -2 26 -10 28 -27z"/>
</g>
</svg>
